<svg aria-hidden="true" style="position: absolute; width: 0; height: 0; overflow: hidden;" version="1.1" xmlns="http://www.w3.org/2000/svg" xmlns:xlink="http://www.w3.org/1999/xlink">
<defs>
<symbol id="icon-axios" viewBox="0 0 32 32">
<path d="M14.758 3.866v25.863l-2.819 2.27v-21.515h-5.306l8.124-6.619zM19.912 0v21.023h5.454l-8.267 6.785v-25.849l2.813-1.959z"></path>
</symbol>
<symbol id="icon-css" viewBox="0 0 32 32">
<path fill="#2f9dd9" style="fill: var(--color1, #2f9dd9)" d="M22.85 17.869h-20.331v8.369h17.269l3.063-8.369zM7.4 23.413c0.169 0.231 0.406 0.344 0.7 0.344 0.287 0 0.512-0.075 0.662-0.225s0.225-0.369 0.225-0.656h0.681l0.006 0.019c0.006 0.431-0.131 0.775-0.419 1.038s-0.675 0.394-1.162 0.394c-0.494 0-0.894-0.169-1.206-0.5-0.306-0.331-0.463-0.762-0.463-1.281v-0.806c0-0.519 0.15-0.944 0.456-1.281s0.7-0.506 1.188-0.506c0.5 0 0.894 0.125 1.181 0.381s0.425 0.606 0.419 1.050l-0.006 0.019h-0.688c0-0.281-0.075-0.5-0.231-0.65s-0.381-0.225-0.675-0.225c-0.287 0-0.519 0.113-0.688 0.344s-0.25 0.519-0.25 0.869v0.813c0.013 0.344 0.094 0.631 0.269 0.863zM13.075 24.006c-0.275 0.212-0.637 0.313-1.088 0.313-0.431 0-0.806-0.113-1.131-0.344-0.319-0.231-0.475-0.556-0.469-0.975l0.006-0.019h0.681c0 0.256 0.088 0.45 0.262 0.575 0.175 0.131 0.394 0.194 0.644 0.194s0.444-0.050 0.588-0.156c0.137-0.106 0.206-0.25 0.206-0.431 0-0.175-0.063-0.325-0.188-0.438s-0.35-0.212-0.669-0.306c-0.456-0.125-0.813-0.294-1.056-0.5-0.25-0.206-0.375-0.475-0.375-0.806 0-0.344 0.137-0.625 0.406-0.85 0.275-0.225 0.625-0.331 1.050-0.331 0.463 0 0.825 0.125 1.1 0.369s0.406 0.55 0.4 0.913l-0.006 0.019h-0.681c0-0.225-0.075-0.4-0.225-0.538-0.15-0.131-0.35-0.2-0.594-0.2-0.238 0-0.425 0.056-0.556 0.169s-0.194 0.256-0.194 0.438c0 0.163 0.069 0.3 0.213 0.406s0.375 0.206 0.706 0.3c0.444 0.125 0.787 0.294 1.019 0.512 0.231 0.212 0.35 0.488 0.35 0.825 0.012 0.369-0.125 0.65-0.4 0.863zM16.931 24.006c-0.275 0.212-0.637 0.313-1.088 0.313-0.431 0-0.806-0.113-1.131-0.344-0.319-0.231-0.475-0.556-0.469-0.975l0.006-0.019h0.681c0 0.256 0.088 0.45 0.262 0.575 0.175 0.131 0.394 0.194 0.644 0.194s0.444-0.050 0.587-0.156c0.137-0.106 0.206-0.25 0.206-0.431 0-0.175-0.063-0.325-0.188-0.438s-0.35-0.212-0.669-0.306c-0.456-0.125-0.813-0.294-1.056-0.5-0.25-0.206-0.375-0.475-0.375-0.806 0-0.344 0.137-0.625 0.406-0.85 0.275-0.225 0.625-0.331 1.050-0.331 0.463 0 0.825 0.125 1.1 0.369s0.406 0.55 0.4 0.913l-0.006 0.019h-0.681c0-0.225-0.075-0.4-0.225-0.538-0.15-0.131-0.35-0.2-0.594-0.2-0.238 0-0.425 0.056-0.556 0.169s-0.194 0.256-0.194 0.438c0 0.163 0.069 0.3 0.213 0.406s0.375 0.206 0.706 0.3c0.444 0.125 0.787 0.294 1.019 0.512 0.231 0.212 0.35 0.488 0.35 0.825 0.012 0.369-0.125 0.65-0.4 0.863z"></path>
<path fill="#2f9dd9" style="fill: var(--color1, #2f9dd9)" d="M22.056 0.375v0h-15.344c-0.456 0-0.831 0.375-0.831 0.831v16.050h1.663v-15.219h14.512v5.763h5.762v22.163h-20.275v-3.113h-1.662v3.944c0 0.456 0.375 0.831 0.831 0.831h21.938c0.456 0 0.831-0.375 0.831-0.831v-22.994l-7.425-7.425z"></path>
<path fill="#2f9dd9" style="fill: var(--color1, #2f9dd9)" d="M9.762 10.713h15.838v1.225h-15.838v-1.225z"></path>
<path fill="#2f9dd9" style="fill: var(--color1, #2f9dd9)" d="M9.762 13.094h13.331v1.225h-13.331v-1.225z"></path>
</symbol>
<symbol id="icon-figma" viewBox="0 0 32 32">
<path fill="#0acf83" style="fill: var(--color2, #0acf83)" d="M10.671 32c2.946 0 5.333-2.388 5.333-5.333v0-5.333h-5.333c-2.946 0-5.333 2.388-5.333 5.333s2.388 5.333 5.333 5.333v0z"></path>
<path fill="#a259ff" style="fill: var(--color3, #a259ff)" d="M5.338 16c0-2.946 2.388-5.333 5.333-5.333v0h5.333v10.667h-5.333c-2.946 0-5.333-2.388-5.333-5.333v0z"></path>
<path fill="#f24e1e" style="fill: var(--color4, #f24e1e)" d="M5.338 5.333c0-2.944 2.385-5.331 5.329-5.333h5.334v10.667h-5.329c-2.946 0-5.333-2.388-5.333-5.333v0z"></path>
<path fill="#ff7262" style="fill: var(--color5, #ff7262)" d="M16.004 0h5.333c2.946 0 5.333 2.388 5.333 5.333s-2.388 5.333-5.333 5.333v0h-5.333z"></path>
<path fill="#1abcfe" style="fill: var(--color6, #1abcfe)" d="M26.671 16c0 2.946-2.388 5.333-5.333 5.333s-5.333-2.388-5.333-5.333v0c0-2.946 2.388-5.333 5.333-5.333s5.333 2.388 5.333 5.333v0z"></path>
</symbol>
<symbol id="icon-git" viewBox="0 0 32 32">
<path fill="#f34f29" style="fill: var(--color7, #f34f29)" d="M19.001 12.647c-1.914 0-2.865 0.999-2.865 2.438 0 0.926 0.463 1.582 1.076 1.882-0.3 0.275-0.55 0.516-0.776 0.753s-0.363 0.489-0.363 0.765c0 0.338 0.137 0.651 0.55 0.826-0.438 0.413-0.688 0.713-0.688 1.277 0 0.988 0.863 1.564 3.128 1.564 2.177 0 3.44-0.813 3.44-2.252 0-1.663-1.276-1.726-3.44-1.864l-1.226-0.075 0.413-0.663c0.225 0.063 0.588 0.113 0.989 0.113 1.576 0 2.665-0.813 2.665-2.202 0-0.575-0.284-0.976-0.509-1.264l1.105-0.088v-1.107h-2.348c-0.288 0-0.613-0.103-1.151-0.103zM19.564 19.775c0.601 0.038 1.076 0.063 1.076 0.463 0 0.675-0.989 0.726-1.714 0.726-0.876 0-1.514-0.151-1.514-0.651 0-0.25 0.163-0.463 0.326-0.663l1.826 0.125zM19.077 16.097c-0.826 0-1.164-0.426-1.164-1.038 0-0.813 0.513-1.151 1.201-1.151 0.713 0 1.139 0.388 1.139 1.126 0 0.651-0.476 1.064-1.176 1.064zM24.793 11.671c0.726 0 1.139-0.413 1.139-1.127s-0.413-1.101-1.139-1.101c-0.713 0-1.126 0.388-1.126 1.101s0.413 1.127 1.126 1.127zM25.75 17.864v-5.114h-2.433l-0.137 0.974 0.667 0.219c0.125 0.037 0.154 0.106 0.154 0.243v3.678c0 0.188-0.105 0.226-0.281 0.251l-0.719 0.087v1.048h3.75v-1.048l-0.719-0.087c-0.188-0.025-0.281-0.050-0.281-0.251zM31.355 17.604c-0.3 0.113-0.658 0.2-1.009 0.2-0.675 0-0.846-0.288-0.846-1.026v-3.028h1.75v-1.25h-1.66c-0.1 0-0.090-0.001-0.090-0.088v-1.662h-1.198c-0.137 1.25-0.802 1.799-1.802 1.925v1.075h1.001c0.1 0-0.001 0.088-0.001 0.163v3.278c0 1.414 0.613 2.015 2.102 2.015 0.713 0 1.527-0.238 2.065-0.5l-0.313-1.101zM7.434 9.701c-0.329-0.329-0.864-0.329-1.193 0l-1.188 1.188 1.507 1.507c0.35-0.118 0.752-0.039 1.031 0.24 0.28 0.281 0.359 0.686 0.238 1.037l1.452 1.452c0.351-0.121 0.757-0.043 1.037 0.238 0.393 0.392 0.393 1.028 0 1.42s-1.027 0.392-1.42 0c-0.295-0.295-0.406-0.729-0.256-1.092l-1.393-1.354v3.564c0 0.047 0.224 0.11 0.303 0.19 0.392 0.392 0.411 1.027 0.019 1.42s-1.019 0.392-1.41 0c-0.392-0.393-0.387-1.028 0.005-1.42 0.097-0.097 0.083-0.17 0.333-0.219v-3.597c-0.25-0.049-0.232-0.122-0.329-0.219-0.297-0.297-0.369-0.733-0.216-1.098l-1.486-1.486-3.922 3.922c-0.33 0.33-0.33 0.864 0 1.194l5.721 5.72c0.329 0.329 0.864 0.329 1.193 0l5.694-5.694c0.329-0.329 0.329-0.864 0-1.194l-5.721-5.72z"></path>
</symbol>
<symbol id="icon-html" viewBox="0 0 32 32">
<path fill="#e44f26" style="fill: var(--color8, #e44f26)" d="M5.902 27.201l-2.247-25.201h24.69l-2.25 25.197-10.11 2.803-10.083-2.799z"></path>
<path fill="#f1662a" style="fill: var(--color9, #f1662a)" d="M16 27.858l8.17-2.265 1.922-21.532h-10.092v23.797z"></path>
<path fill="#ebebeb" style="fill: var(--color10, #ebebeb)" d="M16 13.407h-4.090l-0.282-3.165h4.372v-3.091h-7.75l0.074 0.83 0.759 8.517h6.917v-3.091z"></path>
<path fill="#ebebeb" style="fill: var(--color10, #ebebeb)" d="M16 21.434l-0.014 0.004-3.442-0.929-0.22-2.465h-3.103l0.433 4.852 6.332 1.758 0.014-0.004v-3.216z"></path>
<path fill="#fff" style="fill: var(--color11, #fff)" d="M15.989 13.407v3.091h3.806l-0.358 4.009-3.448 0.93v3.216l6.337-1.757 0.046-0.522 0.726-8.137 0.076-0.83h-7.185z"></path>
<path fill="#fff" style="fill: var(--color11, #fff)" d="M15.989 7.151v3.091h7.466l0.062-0.694 0.141-1.567 0.074-0.83h-7.743z"></path>
</symbol>
<symbol id="icon-java_script" viewBox="0 0 32 32">
<path stroke-linejoin="round" stroke-linecap="round" stroke-miterlimit="10" stroke-width="2" d="M5.467 2.667h21.067c0.8 0 1.467 0.667 1.333 1.467l-2.4 21.6c0 0.533-0.4 0.933-0.933 1.2l-8.133 2.267c-0.267 0.133-0.533 0.133-0.667 0l-8.133-2.267c-0.533-0.133-0.933-0.533-0.933-1.2l-2.533-21.6c0-0.8 0.533-1.467 1.333-1.467z"></path>
<path stroke-linejoin="round" stroke-linecap="round" stroke-miterlimit="10" stroke-width="2" d="M14.133 9.333v12l-4.133-1.2"></path>
<path stroke-linejoin="round" stroke-linecap="round" stroke-miterlimit="10" stroke-width="2" d="M22 9.333l-4.133 0.533v6.667l4.133-0.667v4.267l-4.8 1.2"></path>
</symbol>
<symbol id="icon-node" viewBox="0 0 32 32">
<path fill="#83cd29" style="fill: var(--color12, #83cd29)" d="M16 30c-0 0-0.001 0-0.001 0-0.396 0-0.767-0.107-1.085-0.294l0.010 0.006-3.424-2.027c-0.511-0.286-0.262-0.387-0.093-0.446 0.591-0.185 1.104-0.423 1.578-0.717l-0.029 0.017c0.032-0.015 0.070-0.024 0.11-0.024 0.054 0 0.104 0.016 0.146 0.044l-0.001-0.001 2.631 1.563c0.046 0.025 0.101 0.039 0.159 0.039s0.113-0.015 0.161-0.040l-0.002 0.001 10.26-5.922c0.095-0.057 0.157-0.16 0.157-0.277 0-0 0-0.001 0-0.001v0-11.846c0-0 0-0 0-0 0-0.119-0.063-0.224-0.158-0.282l-0.001-0.001-10.26-5.917c-0.046-0.026-0.1-0.042-0.159-0.042s-0.113 0.015-0.16 0.042l0.002-0.001-10.254 5.919c-0.097 0.058-0.161 0.162-0.162 0.281v11.841c0 0.117 0.064 0.219 0.159 0.273l0.002 0.001 2.814 1.624c1.525 0.762 2.459-0.136 2.459-1.038v-11.691c0-0.166 0.134-0.3 0.3-0.3v0h1.3c0.166 0 0.3 0.134 0.3 0.3v0 11.692c0 2.035-1.108 3.2-3.038 3.2-0.023 0-0.050 0.001-0.076 0.001-0.846 0-1.635-0.239-2.305-0.654l0.019 0.011-2.697-1.547c-0.648-0.382-1.076-1.077-1.076-1.872 0-0 0-0 0-0v0-11.841c0-0.002 0-0.004 0-0.006 0-0.794 0.428-1.488 1.066-1.864l0.010-0.005 10.261-5.924c0.311-0.173 0.683-0.276 1.078-0.276s0.767 0.102 1.089 0.281l-0.011-0.006 10.26 5.924c0.648 0.382 1.076 1.076 1.077 1.87v11.846c-0.001 0.795-0.429 1.489-1.067 1.866l-0.010 0.006-10.26 5.924c-0.309 0.181-0.68 0.288-1.075 0.288-0.001 0-0.002 0-0.003 0h0z"></path>
<path fill="#83cd29" style="fill: var(--color12, #83cd29)" d="M14.054 17.953c0-0.166 0.134-0.3 0.3-0.3v0h1.327c0.148 0 0.271 0.108 0.295 0.249l0 0.002c0.2 1.351 0.8 2.032 3.513 2.032 2.161 0 3.082-0.489 3.082-1.636 0-0.661-0.261-1.152-3.62-1.481-2.808-0.278-4.544-0.9-4.544-3.144 0-2.070 1.745-3.305 4.67-3.305 3.287 0 4.914 1.141 5.12 3.589 0.001 0.007 0.001 0.015 0.001 0.023 0 0.164-0.132 0.298-0.296 0.3h-1.336c-0.14-0.002-0.256-0.099-0.288-0.23l-0-0.002c-0.319-1.421-1.1-1.875-3.2-1.875-2.36 0-2.634 0.822-2.634 1.438 0 0.746 0.324 0.964 3.51 1.385 3.153 0.417 4.651 1.007 4.651 3.223 0 2.236-1.864 3.516-5.115 3.516-4.495 0.006-5.436-2.055-5.436-3.784z"></path>
</symbol>
<symbol id="icon-vite_logo" viewBox="0 0 32 32">
<path d="M11.048 14.104l0.683-11.543c0.012-0.187 0.148-0.34 0.327-0.376l0.003-0 11.109-2.177c0.024-0.005 0.051-0.008 0.079-0.008 0.225 0 0.408 0.183 0.408 0.408 0 0.040-0.006 0.079-0.017 0.116l0.001-0.003-2.077 7.204c-0.010 0.034-0.016 0.073-0.016 0.113 0 0.225 0.183 0.408 0.408 0.408 0.027 0 0.054-0.003 0.080-0.008l-0.003 0 3.184-0.613c0.024-0.005 0.051-0.008 0.078-0.008 0.225 0 0.408 0.183 0.408 0.408 0 0.067-0.016 0.13-0.045 0.186l0.001-0.002-9.053 18.067-0.164 0.253c-0.070 0.113-0.193 0.187-0.334 0.187-0.001 0-0.001 0-0.002 0h0c-0.236 0-0.467-0.203-0.407-0.492l1.46-7.068c0.005-0.025 0.008-0.053 0.008-0.083 0-0.225-0.183-0.408-0.408-0.408-0.042 0-0.083 0.006-0.121 0.018l0.003-0.001-1.911 0.58c-0.036 0.011-0.076 0.018-0.119 0.018-0.225 0-0.408-0.183-0.408-0.408 0-0.029 0.003-0.057 0.009-0.084l-0 0.003 0.92-4.5c0.005-0.025 0.009-0.054 0.009-0.083 0-0.225-0.183-0.408-0.408-0.408-0.033 0-0.066 0.004-0.097 0.011l0.003-0.001-3.093 0.715c-0.027 0.007-0.059 0.010-0.091 0.010-0.225 0-0.408-0.183-0.408-0.408 0-0.008 0-0.017 0.001-0.025l-0 0.001zM31.016 3.536l-7.971 1.451-0.725 2.516 2.769-0.533c0.063-0.013 0.135-0.021 0.209-0.021 0.384 0 0.721 0.203 0.909 0.508l0.003 0.005c0.101 0.16 0.16 0.354 0.16 0.562 0 0.176-0.042 0.341-0.118 0.488l0.003-0.006-9.072 18.101-0.020 0.031-0.163 0.253c-0.192 0.297-0.521 0.492-0.896 0.493h-0c-0.34-0.002-0.643-0.158-0.844-0.401l-0.002-0.002c-0.148-0.181-0.237-0.415-0.237-0.67 0-0.079 0.009-0.156 0.025-0.23l-0.001 0.007 1.372-6.641-1.493 0.453c-0.093 0.029-0.2 0.046-0.312 0.046-0.336 0-0.636-0.153-0.834-0.393l-0.001-0.002c-0.151-0.183-0.242-0.42-0.242-0.677 0-0.076 0.008-0.151 0.023-0.223l-0.001 0.007 0.84-4.107-2.703 0.624c-0.072 0.017-0.155 0.027-0.241 0.027-0.308 0-0.587-0.13-0.783-0.337l-0-0.001c-0.18-0.193-0.291-0.452-0.291-0.738 0-0.022 0.001-0.044 0.002-0.065l-0 0.003 0.519-8.76-9.92-1.773c-0.044-0.008-0.094-0.013-0.145-0.013-0.451 0-0.816 0.365-0.816 0.816 0 0.149 0.040 0.289 0.11 0.409l-0.002-0.004 15.313 26.849c0.143 0.248 0.407 0.412 0.709 0.412 0.304 0 0.57-0.167 0.71-0.414l0.002-0.004 15.013-26.847c0.065-0.114 0.103-0.251 0.103-0.397 0-0.451-0.365-0.816-0.816-0.816-0.052 0-0.102 0.005-0.151 0.014l0.005-0.001z"></path>
</symbol>
<symbol id="icon-vscode" viewBox="0 0 32 32">
<path fill="#5995b6" style="fill: var(--color13, #5995b6)" opacity="0.99" d="M31 16c0 8.357-6.774 15.131-15.131 15.131v0c-8.357 0-15.131-6.774-15.131-15.131v0c0-8.357 6.774-15.131 15.131-15.131v0c8.357 0 15.131 6.774 15.131 15.131v0z"></path>
<path fill="#fff" style="fill: var(--color11, #fff)" d="M23.869 10l-4-2-5.883 5.883-4.117-2.883-2 1 4 4-4 4 2 1 4.117-2.883 5.883 5.883 4-2zM19.869 14v4l-2.857-2z"></path>
</symbol>
<symbol id="icon-iconfinder-star" viewBox="0 0 32 32">
<path fill="#f1c410" style="fill: var(--color1, #f1c410)" d="M31.625 16c0 8.629-6.996 15.625-15.625 15.625s-15.625-6.996-15.625-15.625c0-8.629 6.996-15.625 15.625-15.625s15.625 6.996 15.625 15.625z"></path>
<path fill="#f49c13" style="fill: var(--color2, #f49c13)" d="M31.238 19.475c-0.012-0.025-0.038-0.050-0.063-0.081-2.025-2.019-4.044-4.044-6.069-6.063-0.031-0.031-0.063-0.063-0.094-0.094-0.188-0.181-0.406-0.306-0.663-0.356-0.175-0.037-0.356-0.056-0.531-0.088-0.506-0.075-1.019-0.15-1.525-0.219-0.106-0.012-0.181-0.056-0.256-0.131-1.637-1.644-3.281-3.281-4.919-4.925-0.031-0.031-0.063-0.063-0.094-0.094-0.6-0.569-1.581-0.487-2.081 0.169-0.094 0.119-0.156 0.256-0.219 0.388-0.656 1.325-1.313 2.656-1.963 3.987-0.069 0.137-0.162 0.206-0.306 0.225-0.719 0.1-1.431 0.2-2.15 0.306-0.794 0.119-1.588 0.231-2.388 0.35-0.569 0.081-0.969 0.394-1.156 0.938s-0.063 1.031 0.331 1.45c0.106 0.113 0.219 0.219 0.331 0.331 1.013 1.012 2.019 2.025 3.038 3.031 0.069 0.063 0.094 0.125 0.075 0.219-0.106 0.581-0.206 1.169-0.306 1.756-0.137 0.8-0.275 1.6-0.412 2.406-0.037 0.212-0.081 0.419-0.088 0.625 0.006 0.419 0.162 0.762 0.456 1.050 2.269 2.269 4.544 4.537 6.806 6.813 0.050 0.050 0.1 0.087 0.156 0.113 6.913-0.494 12.587-5.506 14.087-12.106z"></path>
<path fill="#fff" style="fill: var(--color3, #fff)" d="M20.931 24.981c-0.225 0-0.444-0.056-0.65-0.163l-4.15-2.181c-0.081-0.044-0.181-0.044-0.262 0l-4.15 2.181c-0.475 0.25-1.037 0.206-1.475-0.106-0.431-0.313-0.644-0.837-0.556-1.369l0.794-4.619c0.012-0.094-0.012-0.181-0.081-0.25l-3.356-3.269c-0.381-0.375-0.519-0.925-0.356-1.431 0.169-0.512 0.6-0.875 1.131-0.95l4.638-0.675c0.094-0.012 0.169-0.069 0.213-0.15l2.075-4.206c0.238-0.481 0.719-0.781 1.256-0.781s1.019 0.3 1.256 0.781l2.075 4.2c0.044 0.081 0.119 0.137 0.212 0.15l4.637 0.675c0.531 0.075 0.962 0.444 1.131 0.95 0.169 0.512 0.031 1.056-0.356 1.431l-3.356 3.269c-0.069 0.063-0.094 0.156-0.081 0.25l0.794 4.619c0.094 0.531-0.125 1.050-0.556 1.369-0.25 0.188-0.538 0.275-0.825 0.275zM16 21.488c0.225 0 0.444 0.056 0.65 0.163l4.15 2.181c0.137 0.075 0.25 0.012 0.294-0.019s0.137-0.119 0.113-0.275l-0.794-4.619c-0.075-0.456 0.075-0.919 0.4-1.238l3.356-3.269c0.113-0.113 0.087-0.238 0.069-0.287s-0.069-0.169-0.225-0.188l-4.637-0.681c-0.456-0.069-0.85-0.35-1.050-0.762l-2.075-4.206c-0.069-0.144-0.2-0.156-0.25-0.156s-0.181 0.012-0.25 0.156l-2.075 4.206c-0.206 0.412-0.6 0.7-1.050 0.762l-4.638 0.675c-0.156 0.025-0.213 0.137-0.225 0.188-0.019 0.050-0.044 0.175 0.069 0.287l3.356 3.269c0.331 0.319 0.481 0.781 0.4 1.238l-0.794 4.619c-0.025 0.156 0.069 0.244 0.113 0.275s0.156 0.094 0.294 0.019l4.15-2.181c0.206-0.1 0.425-0.156 0.65-0.156z"></path>
</symbol>
<symbol id="icon-java_script2" viewBox="0 0 32 32">
<path fill="none" stroke="#000" style="stroke: var(--color4, #000)" stroke-linejoin="round" stroke-linecap="round" stroke-miterlimit="10" stroke-width="2" d="M5.493 2.667h21.027c0.8 0 1.413 0.693 1.32 1.48l-2.4 21.627c-0.053 0.533-0.44 0.987-0.96 1.133l-8.107 2.32c-0.24 0.067-0.493 0.067-0.733 0l-8.107-2.32c-0.52-0.147-0.893-0.6-0.96-1.133l-2.4-21.627c-0.093-0.787 0.52-1.48 1.32-1.48z"></path>
<path fill="none" opacity="0.4" stroke="#000" style="stroke: var(--color4, #000)" stroke-linejoin="round" stroke-linecap="round" stroke-miterlimit="10" stroke-width="2" d="M14.16 9.346v11.973l-4.16-1.2"></path>
<path fill="none" opacity="0.4" stroke="#000" style="stroke: var(--color4, #000)" stroke-linejoin="round" stroke-linecap="round" stroke-miterlimit="10" stroke-width="2" d="M22.001 9.333l-4.2 0.6v6.6l4.2-0.6v4.2l-4.8 1.2"></path>
</symbol>
<symbol id="icon-complete_done" viewBox="0 0 32 32">
<path fill="#0074ff" style="fill: var(--color1, #0074ff)" d="M14.375 27.75c-6.488-0.002-11.746-5.262-11.746-11.75 0-6.489 5.261-11.75 11.75-11.75 2.635 0 5.067 0.867 7.027 2.332l-0.031-0.022c0.226 0.185 0.369 0.464 0.369 0.776 0 0.552-0.448 1-1 1-0.209 0-0.402-0.064-0.563-0.173l0.003 0.002c-1.603-1.201-3.625-1.923-5.815-1.923-5.388 0-9.755 4.367-9.755 9.755s4.367 9.755 9.755 9.755c5.387 0 9.753-4.366 9.755-9.752v-0c-0.002-0.543-0.047-1.075-0.133-1.592l0.008 0.057c-0.008-0.047-0.012-0.1-0.012-0.155 0-0.559 0.453-1.012 1.012-1.012 0.504 0 0.922 0.369 0.999 0.851l0.001 0.006c0.080 0.519 0.126 1.117 0.126 1.726 0 0.042-0 0.084-0.001 0.125l0-0.006c-0.006 6.487-5.263 11.744-11.749 11.75h-0.001z"></path>
<path fill="#ffb300" style="fill: var(--color2, #ffb300)" d="M15.625 19.75c-0.276-0.001-0.525-0.114-0.705-0.295l-4.75-4.75c-0.149-0.174-0.24-0.401-0.24-0.65 0-0.552 0.448-1 1-1 0.249 0 0.477 0.091 0.652 0.242l-0.001-0.001 4.045 4.040 12.045-12.040c0.174-0.149 0.401-0.24 0.65-0.24 0.552 0 1 0.448 1 1 0 0.249-0.091 0.477-0.242 0.652l0.001-0.001-12.75 12.75c-0.18 0.181-0.429 0.294-0.705 0.295h-0z"></path>
</symbol>
</defs>
</svg>
